<svg width="24" height="15" viewBox="0 0 24 15" fill="none" xmlns="http://www.w3.org/2000/svg">
<path d="M24 7.50011C24 7.92047 23.6985 8.26787 23.3073 8.32285L23.1985 8.33043L2.74219 8.32976L7.83222 13.5813C8.1459 13.9049 8.14699 14.4306 7.83466 14.7555C7.55073 15.051 7.10551 15.0787 6.79124 14.8383L6.70118 14.7581L0.235761 8.08894C0.194413 8.04629 0.1585 8.00013 0.128019 7.95138C0.119411 7.93671 0.110647 7.9217 0.102338 7.90639C0.0946973 7.89326 0.0877927 7.87963 0.0812772 7.86586C0.0722287 7.84581 0.0633881 7.82509 0.055362 7.80396C0.0488408 7.78766 0.0433953 7.77181 0.0384286 7.75584C0.0325234 7.73603 0.0267842 7.71492 0.0218499 7.69348C0.0181802 7.67852 0.0152753 7.66412 0.0127404 7.64966C0.00917749 7.62815 0.00614291 7.60589 0.00397807 7.58336C0.00210887 7.56618 0.000983532 7.54916 0.000361738 7.53212C0.000201521 7.52179 -6.5663e-07 7.51097 -6.5568e-07 7.50011L0.000401798 7.46794C0.00101597 7.45165 0.0020898 7.43537 0.00362522 7.41912L-6.5568e-07 7.50011C-6.511e-07 7.44771 0.0046838 7.39645 0.0136426 7.34674C0.0157216 7.33487 0.0181993 7.32268 0.0209401 7.31055C0.0266336 7.28555 0.033212 7.26148 0.040788 7.23788C0.0445073 7.22616 0.048837 7.21364 0.0534681 7.2012C0.0628332 7.17622 0.0730165 7.1524 0.0842145 7.1292C0.0894178 7.11829 0.0952447 7.10687 0.101346 7.09557C0.111364 7.07713 0.121681 7.0596 0.132591 7.04252C0.140289 7.03043 0.148815 7.01784 0.157716 7.00546L0.164651 6.99589C0.186246 6.96666 0.209672 6.93897 0.234752 6.91298L0.235715 6.91221L6.70113 0.241979C7.01478 -0.0816088 7.52226 -0.0805202 7.83462 0.24441C8.11858 0.539802 8.14352 1.00114 7.91006 1.3257L7.83227 1.41866L2.74433 6.66912L23.1985 6.66979C23.6412 6.66979 24 7.04154 24 7.50011Z" fill="#049BE8"/>
</svg>
