<svg width="24" height="15" viewBox="0 0 24 15" fill="none" xmlns="http://www.w3.org/2000/svg">
<path d="M0 7.49989C0 7.07953 0.301528 6.73213 0.692739 6.67715L0.801498 6.66957L21.2578 6.67023L16.1678 1.41871C15.8541 1.09515 15.853 0.569419 16.1653 0.244461C16.4493 -0.0509548 16.8945 -0.0787468 17.2088 0.161737L17.2988 0.241932L23.7642 6.91106C23.8056 6.95371 23.8415 6.99987 23.872 7.04861C23.8806 7.06329 23.8894 7.0783 23.8977 7.09361C23.9053 7.10673 23.9122 7.12036 23.9187 7.13414C23.9278 7.15419 23.9366 7.1749 23.9446 7.19604C23.9512 7.21234 23.9566 7.22819 23.9616 7.24416C23.9675 7.26397 23.9732 7.28508 23.9781 7.30651C23.9818 7.32148 23.9847 7.33588 23.9873 7.35034C23.9908 7.37185 23.9939 7.39411 23.996 7.41664C23.9979 7.43382 23.999 7.45084 23.9996 7.46788C23.9998 7.47821 24 7.48902 24 7.49989L23.9996 7.53205C23.999 7.54835 23.9979 7.56463 23.9964 7.58088L24 7.49989C24 7.55229 23.9953 7.60355 23.9864 7.65326C23.9843 7.66513 23.9818 7.67731 23.9791 7.68945C23.9734 7.71445 23.9668 7.73851 23.9592 7.76211C23.9555 7.77384 23.9512 7.78636 23.9465 7.7988C23.9372 7.82378 23.927 7.8476 23.9158 7.8708C23.9106 7.88171 23.9048 7.89313 23.8987 7.90443C23.8886 7.92287 23.8783 7.9404 23.8674 7.95748C23.8597 7.96957 23.8512 7.98215 23.8423 7.99454L23.8353 8.00411C23.8138 8.03334 23.7903 8.06103 23.7652 8.08701L23.7643 8.08779L17.2989 14.758C16.9852 15.0816 16.4777 15.0805 16.1654 14.7556C15.8814 14.4602 15.8565 13.9989 16.0899 13.6743L16.1677 13.5813L21.2557 8.33087L0.801498 8.33021C0.358843 8.33021 0 7.95846 0 7.49989Z" fill="#049BE8"/>
</svg>
