<svg width="16" height="16" viewBox="0 0 16 16" fill="none" xmlns="http://www.w3.org/2000/svg">
<path d="M0.781396 15.5279C0.626858 15.5279 0.475783 15.4854 0.347281 15.4058C0.218778 15.3262 0.118621 15.213 0.0594776 15.0805C0.000334661 14.9481 -0.0151369 14.8024 0.0150198 14.6618C0.0451766 14.5212 0.119607 14.392 0.228896 14.2907L14.6664 0.89784C14.8129 0.761911 15.0117 0.685547 15.2189 0.685547C15.4261 0.685547 15.6249 0.761911 15.7714 0.89784C15.9179 1.03377 16.0002 1.21813 16.0002 1.41036C16.0002 1.60259 15.9179 1.78695 15.7714 1.92288L1.3339 15.3157C1.26141 15.3831 1.17528 15.4365 1.08047 15.4729C0.985653 15.5093 0.884016 15.528 0.781396 15.5279Z" fill="currentColor"/>
<path d="M15.2189 15.5279C15.1162 15.528 15.0146 15.5093 14.9198 15.4729C14.825 15.4365 14.7388 15.3831 14.6664 15.3157L0.228853 1.92288C0.0823209 1.78695 0 1.60259 0 1.41036C0 1.21813 0.0823209 1.03377 0.228853 0.89784C0.375385 0.761911 0.574125 0.685547 0.781353 0.685547C0.988581 0.685547 1.18732 0.761911 1.33385 0.89784L15.7714 14.2907C15.8806 14.392 15.9551 14.5212 15.9852 14.6618C16.0154 14.8024 15.9999 14.9481 15.9408 15.0805C15.8816 15.213 15.7815 15.3262 15.653 15.4058C15.5245 15.4854 15.3734 15.5279 15.2189 15.5279Z" fill="currentColor"/>
</svg>
