<svg width="20" height="20" viewBox="0 0 20 20" fill="none" xmlns="http://www.w3.org/2000/svg">
<circle cx="10" cy="10" r="10" transform="rotate(-180 10 10)" fill="#F3F3F3"/>
<path d="M15 10.0001C15 10.2243 14.829 10.4095 14.6071 10.4389L14.5455 10.4429L6.55515 10.4425L9.44181 13.2434C9.6197 13.4159 9.62032 13.6963 9.44319 13.8696C9.28217 14.0272 9.02968 14.042 8.85145 13.9137L8.80037 13.871L5.1337 10.3141C5.11026 10.2914 5.08989 10.2667 5.0726 10.2407C5.06772 10.2329 5.06275 10.2249 5.05804 10.2167C5.0537 10.2097 5.04979 10.2025 5.04609 10.1951C5.04096 10.1844 5.03595 10.1734 5.0314 10.1621C5.0277 10.1534 5.02461 10.145 5.02179 10.1364C5.01844 10.1259 5.01519 10.1146 5.01239 10.1032C5.01031 10.0952 5.00866 10.0875 5.00723 10.0798C5.0052 10.0683 5.00348 10.0565 5.00226 10.0445C5.0012 10.0353 5.00056 10.0262 5.0002 10.0171C5.00011 10.0116 5 10.0059 5 10.0001L5.00023 9.9829C5.00058 9.97421 5.00119 9.96553 5.00206 9.95687L5 10.0001C5 9.97211 5.00266 9.94477 5.00774 9.91826C5.00892 9.91193 5.01032 9.90543 5.01187 9.89896C5.0151 9.88563 5.01883 9.87279 5.02313 9.86021C5.02524 9.85395 5.0277 9.84727 5.03032 9.84064C5.03563 9.82732 5.04141 9.81461 5.04776 9.80224C5.05071 9.79642 5.05401 9.79033 5.05748 9.7843C5.06316 9.77447 5.06901 9.76512 5.07519 9.75601C5.07956 9.74956 5.0844 9.74285 5.08944 9.73624L5.09338 9.73114C5.10562 9.71555 5.11891 9.70078 5.13313 9.68693L5.13368 9.68651L8.80034 6.12906C8.97822 5.95648 9.26602 5.95706 9.44317 6.13035C9.60421 6.28789 9.61835 6.53394 9.48595 6.70704L9.44184 6.75662L6.55636 9.55687L14.5455 9.55722C14.7965 9.55722 15 9.75549 15 10.0001Z" fill="#D9D9D9"/>
</svg>
