<svg xmlns="http://www.w3.org/2000/svg" width="76" height="76" viewBox="-27 -27 130 130" fill="none">
<path fill-rule="evenodd" clip-rule="evenodd" d="M54.4673 0C60.5911 0 65.8733 2.0453 69.7388 5.91881C73.7795 9.96372 75.996 15.8483 75.9884 22.4907L75.9939 49.1383C76.0006 49.2408 76.0018 49.3436 75.9975 49.4462L75.9884 53.5131C75.9884 66.9618 67.3319 76 54.4482 76H21.5211C8.6488 76 0 66.9618 0 53.5131V22.4869C0 9.03819 8.6488 0 21.5211 0H54.4673ZM55.5207 41.2576C53.2813 41.2576 50.6536 44.9636 48.3267 48.2353C45.1352 52.7296 41.8334 57.3801 36.8597 57.3801C33.4969 57.3801 30.4159 56.0851 27.7005 54.9387C23.3819 53.1181 21.4244 52.5354 19.5087 54.1122C15.6741 57.2725 11.8851 63.0271 10.1441 65.8589C12.892 68.6924 16.7955 70.2869 21.5211 70.2869H54.4482C64.0644 70.2869 70.2758 63.7053 70.2758 53.5131L70.2758 50.4699L70.188 50.3773C66.8541 46.9421 61.0972 41.2576 55.5207 41.2576ZM54.4673 5.71314H21.5211C11.9202 5.71314 5.71255 12.2985 5.71255 22.4869V53.5131C5.71255 56.0596 6.10005 58.3807 6.83115 60.43C9.03501 57.1022 12.3635 52.5966 15.8794 49.7017C20.6474 45.7786 25.7811 47.9344 29.917 49.675C32.3506 50.6996 34.6508 51.667 36.8597 51.667C38.8857 51.667 41.4259 48.0867 43.6728 44.9293C46.7919 40.5264 50.3337 35.5445 55.5207 35.5445C61.2131 35.5445 66.3689 39.0431 70.2799 42.5151L70.2758 22.4869C70.2834 17.2956 68.6991 12.9612 65.6981 9.9561C62.9257 7.17951 59.0449 5.71314 54.4673 5.71314ZM26.114 15.9568C31.5637 15.9606 35.9967 20.394 36.0005 25.8405C36.0005 31.2909 31.5676 35.7281 26.114 35.7281C20.6604 35.7281 16.2275 31.2947 16.2275 25.8443C16.2275 20.3902 20.6604 15.9568 26.114 15.9568ZM26.1102 21.6699C23.8099 21.6699 21.94 23.54 21.94 25.8443C21.94 28.1448 23.8099 30.0149 26.114 30.0149C28.4142 30.0149 30.2879 28.1448 30.2879 25.8482C30.2841 23.5438 28.4104 21.6737 26.1102 21.6699Z" fill="#F8F8F8"/>
</svg>