<svg width="20" height="20" viewBox="0 0 20 20" fill="none" xmlns="http://www.w3.org/2000/svg">
<circle cx="10" cy="10" r="10" fill="#F3F3F3"/>
<path d="M5 9.99994C5 9.77575 5.171 9.59047 5.39287 9.56115L5.45455 9.5571L13.4448 9.55746L10.5582 6.75664C10.3803 6.58408 10.3797 6.30369 10.5568 6.13038C10.7178 5.97282 10.9703 5.958 11.1486 6.08626L11.1996 6.12903L14.8663 9.6859C14.8897 9.70864 14.9101 9.73326 14.9274 9.75926C14.9323 9.76709 14.9372 9.77509 14.942 9.78326C14.9463 9.79026 14.9502 9.79753 14.9539 9.80488C14.959 9.81557 14.9641 9.82662 14.9686 9.83789C14.9723 9.84658 14.9754 9.85503 14.9782 9.86355C14.9816 9.87412 14.9848 9.88538 14.9876 9.89681C14.9897 9.90479 14.9913 9.91247 14.9928 9.92018C14.9948 9.93165 14.9965 9.94353 14.9977 9.95554C14.9988 9.9647 14.9994 9.97378 14.9998 9.98287C14.9999 9.98838 15 9.99415 15 9.99994L14.9998 10.0171C14.9994 10.0258 14.9988 10.0345 14.9979 10.0431L15 9.99994C15 10.0279 14.9973 10.0552 14.9923 10.0817C14.9911 10.0881 14.9897 10.0946 14.9881 10.101C14.9849 10.1144 14.9812 10.1272 14.9769 10.1398C14.9748 10.146 14.9723 10.1527 14.9697 10.1594C14.9644 10.1727 14.9586 10.1854 14.9522 10.1978C14.9493 10.2036 14.946 10.2097 14.9425 10.2157C14.9368 10.2255 14.931 10.2349 14.9248 10.244C14.9204 10.2504 14.9156 10.2571 14.9106 10.2638L14.9066 10.2689C14.8944 10.2844 14.8811 10.2992 14.8669 10.3131L14.8663 10.3135L11.1997 13.8709C11.0218 14.0435 10.734 14.0429 10.5568 13.8696C10.3958 13.7121 10.3816 13.4661 10.514 13.293L10.5582 13.2434L13.4436 10.4431L5.45455 10.4428C5.20351 10.4428 5 10.2445 5 9.99994Z" fill="#D9D9D9"/>
</svg>
