<svg width="58" height="58" viewBox="0 0 58 58" fill="none" xmlns="http://www.w3.org/2000/svg">
<path fill-rule="evenodd" clip-rule="evenodd" d="M38.1676 2.41675C39.1681 2.41675 39.9801 3.22875 39.9801 4.22925L39.9812 6.27812C43.5098 6.52004 46.4404 7.72869 48.5146 9.80716C50.779 12.0812 51.9704 15.351 51.9584 19.2732V41.3205C51.9584 49.3728 46.8447 54.3753 38.6159 54.3753H18.1758C9.947 54.3753 4.83334 49.3027 4.83334 41.1368V19.2684C4.83334 11.6733 9.39372 6.79802 16.8313 6.27895L16.8328 4.22925C16.8328 3.22875 17.6448 2.41675 18.6453 2.41675C19.6458 2.41675 20.4578 3.22875 20.4578 4.22925L20.4571 6.23266H36.3539L36.3551 4.22925C36.3551 3.22875 37.1671 2.41675 38.1676 2.41675ZM48.3333 23.9347H8.45834V41.1368C8.45834 47.338 11.9093 50.7503 18.1758 50.7503H38.6159C44.8823 50.7503 48.3334 47.4008 48.3334 41.3205L48.3333 23.9347ZM39.1529 39.1411C40.1534 39.1411 40.9654 39.9531 40.9654 40.9536C40.9654 41.9541 40.1534 42.7661 39.1529 42.7661C38.1524 42.7661 37.3307 41.9541 37.3307 40.9536C37.3307 39.9531 38.1307 39.1411 39.1312 39.1411H39.1529ZM28.4289 39.1411C29.4294 39.1411 30.2414 39.9531 30.2414 40.9536C30.2414 41.9541 29.4294 42.7661 28.4289 42.7661C27.4284 42.7661 26.6068 41.9541 26.6068 40.9536C26.6068 39.9531 27.4067 39.1411 28.4072 39.1411H28.4289ZM17.6825 39.1411C18.683 39.1411 19.495 39.9531 19.495 40.9536C19.495 41.9541 18.683 42.7661 17.6825 42.7661C16.682 42.7661 15.8579 41.9541 15.8579 40.9536C15.8579 39.9531 16.6603 39.1411 17.6608 39.1411H17.6825ZM39.1529 29.7483C40.1534 29.7483 40.9654 30.5603 40.9654 31.5608C40.9654 32.5613 40.1534 33.3733 39.1529 33.3733C38.1524 33.3733 37.3307 32.5613 37.3307 31.5608C37.3307 30.5603 38.1307 29.7483 39.1312 29.7483H39.1529ZM28.4289 29.7483C29.4294 29.7483 30.2414 30.5603 30.2414 31.5608C30.2414 32.5613 29.4294 33.3733 28.4289 33.3733C27.4284 33.3733 26.6068 32.5613 26.6068 31.5608C26.6068 30.5603 27.4067 29.7483 28.4072 29.7483H28.4289ZM17.6825 29.7483C18.683 29.7483 19.495 30.5603 19.495 31.5608C19.495 32.5613 18.683 33.3733 17.6825 33.3733C16.682 33.3733 15.8579 32.5613 15.8579 31.5608C15.8579 30.5603 16.6603 29.7483 17.6608 29.7483H17.6825ZM36.3539 9.85767H20.4571L20.4578 12.1825C20.4578 13.183 19.6458 13.995 18.6453 13.995C17.6448 13.995 16.8328 13.183 16.8328 12.1825L16.8315 9.91253C11.4176 10.3673 8.45834 13.6491 8.45834 19.2684V20.3097H48.3333L48.3334 19.2684C48.343 16.2838 47.5407 13.9638 45.9481 12.3688C44.5501 10.9667 42.5064 10.1293 39.9822 9.91369L39.9801 12.1825C39.9801 13.183 39.1681 13.995 38.1676 13.995C37.1671 13.995 36.3551 13.183 36.3551 12.1825L36.3539 9.85767Z" fill="currentColor"/>
</svg>
